<?xml version="1.0" standalone="no"?><!DOCTYPE svg PUBLIC "-//W3C//DTD SVG 1.1//EN" "http://www.w3.org/Graphics/SVG/1.1/DTD/svg11.dtd"><svg t="1629188253179" class="icon" viewBox="0 0 1024 1024" version="1.1" xmlns="http://www.w3.org/2000/svg" p-id="3289" xmlns:xlink="http://www.w3.org/1999/xlink" width="200" height="200"><defs><style type="text/css"></style></defs><path d="M212.992 49.92h609.1776v75.9808H212.992z" fill="#009245" p-id="3290"></path><path d="M827.4432 131.1744H207.7184V44.5952h619.776v86.5792zM218.2656 120.576h598.6304V55.1936H218.2656v65.3824z" fill="#009245" p-id="3291"></path><path d="M785.1008 14.4896H238.8992c-35.4816 0-64.512 29.0304-64.512 64.512v865.9968c0 35.4816 29.0304 64.512 64.512 64.512h546.2528c35.4816 0 64.512-29.0304 64.512-64.512V79.0016c-0.0512-35.4816-29.0816-64.512-64.5632-64.512z m25.9072 901.0176c0 35.4816-29.0304 64.512-64.512 64.512h-205.1584c-8.6528 4.9664-18.6368 7.8848-29.3376 7.8848s-20.6848-2.8672-29.3376-7.8848H277.504c-35.4816 0-64.512-29.0304-64.512-64.512V108.4928c0-35.4816 29.0304-64.512 64.512-64.512h468.992c35.4816 0 64.512 29.0304 64.512 64.512v807.0144z" fill="#009245" p-id="3292"></path><path d="M785.1008 1017.6H238.8992c-40.0384 0-72.5504-32.5632-72.5504-72.6016V79.0016c0-40.0384 32.5632-72.6016 72.5504-72.6016h546.2528c40.0384 0 72.5504 32.5632 72.5504 72.6016v865.9968c0 40.0384-32.5632 72.6016-72.6016 72.6016zM238.8992 22.528c-31.1296 0-56.4224 25.344-56.4224 56.4224v865.9968c0 31.1296 25.344 56.4736 56.4224 56.4736h546.2528c31.1296 0 56.4224-25.344 56.4224-56.4736V79.0016c0-31.1296-25.344-56.4224-56.4224-56.4224H238.8992zM512 995.9424c-10.9056 0-21.76-2.7136-31.4368-7.8848H277.504c-40.0384 0-72.6016-32.5632-72.6016-72.5504V108.4928c0-40.0384 32.5632-72.6016 72.6016-72.6016h468.992c40.0384 0 72.6016 32.5632 72.6016 72.6016v807.0144c0 40.0384-32.5632 72.5504-72.6016 72.5504h-203.0592a66.87744 66.87744 0 0 1-31.4368 7.8848zM277.504 52.0704c-31.1296 0-56.4224 25.344-56.4224 56.4224v807.0144c0 31.1296 25.344 56.4224 56.4224 56.4224h207.3088l1.8432 1.0752c15.4624 8.9088 35.1744 8.9088 50.6368 0l1.8944-1.0752h207.3088c31.1296 0 56.4736-25.344 56.4736-56.4224V108.4928c0-31.1296-25.344-56.4224-56.4736-56.4224H277.504z" fill="#009245" p-id="3293"></path><path d="M207.4112 980.0192h275.2512c-17.664-10.1888-29.5936-29.184-29.5936-51.0464 0-30.1056 22.6304-54.9376 51.8144-58.4192h-297.472v109.4656z" fill="#009245" p-id="3294"></path><path d="M512.8192 988.1088H199.3216v-125.5936h305.5616l0.9728 16.0768a50.7904 50.7904 0 0 0-44.6976 50.432c0 18.0736 9.7792 34.9696 25.5488 44.032l26.112 15.0528z m-297.3696-16.1792h245.248a67.13856 67.13856 0 0 1-15.6672-42.9568c0-19.9168 8.8064-38.0416 22.8864-50.3808h-252.416v93.3376zM519.0656 870.5536c29.184 3.5328 51.8144 28.3136 51.8144 58.4192 0 21.8624-11.9296 40.8576-29.5936 51.0464h275.2512v-109.4656h-297.472z" fill="#009245" p-id="3295"></path><path d="M824.6784 988.1088H511.1808l26.112-15.0528a50.9696 50.9696 0 0 0 25.5488-44.032 50.7904 50.7904 0 0 0-44.6976-50.432l0.9728-16.0768h305.5616v125.5936z m-261.376-16.1792h245.248V878.592h-252.416c14.08 12.3392 22.8864 30.464 22.8864 50.3808-0.0512 15.9232-5.7856 31.0784-15.7184 42.9568z" fill="#009245" p-id="3296"></path><path d="M504.9344 870.5536h14.1824c-2.304-0.256-4.7104-0.4608-7.0656-0.4608s-4.8128 0.2048-7.1168 0.4608z" fill="#009245" p-id="3297"></path><path d="M519.0656 878.6432h-14.1824l-0.9728-16.0768c5.8368-0.7168 10.24-0.7168 16.128 0l-0.9728 16.0768z" fill="#009245" p-id="3298"></path></svg>